<?xml version="1.0" encoding="UTF-8"?>
<svg id="Layer_2" data-name="Layer 2" xmlns="http://www.w3.org/2000/svg" viewBox="0 0 423.49 118.75">
  <defs>
    <style>
      .cls-1 {
        fill: #fff;
      }

      .cls-1, .cls-2 {
        stroke-width: 0px;
      }

      .cls-2 {
        fill: none;
      }
    </style>
  </defs>
  <g id="Layer_1-2" data-name="Layer 1">
    <path class="cls-1" d="M36.17,2.1c4.73,0,9.36.7,13.88,2.08,4.53,1.38,7.89,2.74,10.08,4.08l3.19,2.1-8.06,15.92c-.64-.43-1.53-.98-2.67-1.65-1.13-.67-3.24-1.56-6.35-2.69-3.11-1.14-6.01-1.71-8.69-1.71-3.32,0-5.89.71-7.69,2.13-1.81,1.41-2.71,3.31-2.71,5.71,0,1.21.42,2.33,1.27,3.35.84,1.03,2.29,2.13,4.33,3.29,2.05,1.17,3.86,2.1,5.42,2.81,1.55.7,3.96,1.75,7.23,3.17,5.65,2.41,10.47,5.68,14.46,9.81,4,4.14,6,8.82,6,14.04s-.91,9.42-2.71,13.17c-1.81,3.74-4.29,6.67-7.44,8.79-3.14,2.13-6.62,3.7-10.44,4.71-3.81,1.03-7.94,1.54-12.4,1.54-3.82,0-7.57-.39-11.25-1.17-3.67-.78-6.74-1.75-9.23-2.92-2.47-1.17-4.7-2.31-6.69-3.44-1.97-1.13-3.42-2.07-4.33-2.85l-1.38-1.17,9.98-16.77c.84.71,2.01,1.61,3.48,2.71,1.48,1.1,4.11,2.57,7.9,4.42,3.79,1.83,7.14,2.75,10.04,2.75,8.4,0,12.6-2.86,12.6-8.6,0-1.19-.3-2.3-.9-3.33-.6-1.03-1.66-2.05-3.19-3.06-1.52-1.03-2.85-1.84-4.02-2.44-1.17-.61-3.08-1.53-5.73-2.77-2.66-1.23-4.61-2.17-5.88-2.81-5.31-2.61-9.41-5.88-12.31-9.79-2.89-3.93-4.33-8.16-4.33-12.69,0-7.84,2.9-14.26,8.69-19.25,5.79-4.98,12.4-7.48,19.83-7.48Z"/>
    <path class="cls-1" d="M411.31,68.5c3.39,0,6.26,1.19,8.63,3.56,2.38,2.36,3.56,5.24,3.56,8.63s-1.19,6.17-3.56,8.54c-2.36,2.36-5.24,3.54-8.63,3.54s-6.19-1.18-8.56-3.54c-2.36-2.38-3.54-5.22-3.54-8.54s1.18-6.26,3.54-8.63c2.38-2.38,5.23-3.56,8.56-3.56Z"/>
    <path class="cls-2" d="M97.88,51.21c-3.68,0-6.71,1.2-9.08,3.6-2.36,2.41-3.54,5.45-3.54,9.12s1.21,6.83,3.65,9.23c2.44,2.41,5.44,3.6,8.98,3.6s6.61-1.2,9.04-3.6c2.44-2.4,3.67-5.48,3.67-9.23s-1.17-6.8-3.5-9.17c-2.32-2.38-5.39-3.56-9.21-3.56Z"/>
    <path class="cls-2" d="M152.19,74.58c-.86-1.08-1.82-2.04-2.9-2.91.38.55.8,1.07,1.28,1.56.5.51,1.05.95,1.62,1.35Z"/>
    <path class="cls-1" d="M189.41,63.05h1.35v-26.25h-18.77v5.19c-3.07-2.98-6.71-4.96-10.89-5.98,4.21,18.53,8.95,22.85,28.31,27.05Z"/>
    <path class="cls-1" d="M161.03,91.89c4.21-1.15,7.87-3.43,10.96-6.84h.21v6.15h18.56v-26.67h-1.35c-19.47,4.22-24.15,8.57-28.38,27.37Z"/>
    <path class="cls-1" d="M152.19,74.58c-.57-.4-1.12-.84-1.62-1.35-.48-.49-.9-1.01-1.28-1.56-4.08-3.3-9.87-5.24-18.7-7.15h-8.49v-1.47h8.49c19.51-4.22,24.17-8.59,28.41-27.48-1.54-.25-3.14-.38-4.82-.38-7.85,0-14.32,2.8-19.42,8.4-2.68,2.95-4.65,6.24-5.92,9.87-1.27-3.66-3.25-6.98-5.96-9.93-.26-.28-.53-.56-.79-.83-4.96-5-11.16-7.51-18.6-7.51s-13.15,2.58-17.81,7.75h-.21v-6.15h-18.56v81.96h18.77v-32.75c4.67,4.52,10.6,6.77,17.81,6.77s13.64-2.52,18.6-7.54c.27-.27.53-.54.79-.83,2.69-2.95,4.66-6.24,5.93-9.87,1.27,3.66,3.24,6.98,5.95,9.93,5.09,5.54,11.57,8.31,19.42,8.31,1.7,0,3.34-.15,4.9-.44-1.84-8.28-3.74-13.81-6.88-17.75ZM106.92,73.17c-2.43,2.41-5.45,3.6-9.04,3.6s-6.54-1.2-8.98-3.6c-2.43-2.4-3.65-5.48-3.65-9.23s1.18-6.72,3.54-9.12c2.38-2.4,5.4-3.6,9.08-3.6s6.89,1.19,9.21,3.56c2.33,2.36,3.5,5.42,3.5,9.17s-1.22,6.83-3.67,9.23Z"/>
    <path class="cls-1" d="M374.82,3.71v75.36L344.39,3.71h-18.46l-31.35,77.65-18.59-18.59,25.88-25.98h-24.4l-18.98,18.98V0h-18.77v37.02c-.79-.33-1.73-.65-2.87-.98-1.97-.57-3.98-.85-6.02-.85s-3.94.34-5.85,1.02c-1.91.67-3.46,1.43-4.67,2.27-1.2.85-2.33,1.81-3.4,2.88s-1.74,1.8-2.06,2.23c-.31.42-.53.77-.67,1.04h-.23v-7.83h-18.77v26.25h5.85v1.47h-5.85v26.67h18.77v-28.62c0-.57.14-1.34.42-2.33.29-1,.77-2.2,1.44-3.6.68-1.42,1.83-2.61,3.46-3.6,1.62-1,3.57-1.5,5.83-1.5,4.17,0,7.42.99,9.75,2.98l4.87-9.86v46.55h18.77v-21.73l21.75,21.73h31.81l6.46-17.5h33.29l6.48,17.5h36.46V3.71h-19.94ZM325.31,56.19l9.75-25.44h.21l9.77,25.44h-19.73Z"/>
  </g>
</svg>